<svg width="20" height="20" viewBox="0 0 20 20" fill="none" xmlns="http://www.w3.org/2000/svg">
<path d="M15.8497 8.85431H3.15106V15.2036C3.15106 17.5846 3.94473 18.3783 6.32572 18.3783H12.675C15.056 18.3783 15.8497 17.5846 15.8497 15.2036V8.85431ZM17.064 6.47332V7.26698C17.064 8.14002 16.6434 8.85431 15.4767 8.85431H3.5717C2.3574 8.85431 1.98438 8.14002 1.98438 7.26698V6.47332C1.98438 5.60029 2.3574 4.88599 3.5717 4.88599H15.4767C16.6434 4.88599 17.064 5.60029 17.064 6.47332ZM9.23847 4.88599H4.85744C4.72694 4.74445 4.65649 4.55777 4.66093 4.3653C4.66537 4.17283 4.74436 3.9896 4.88125 3.85423L6.00825 2.72722C6.15089 2.58618 6.34339 2.50708 6.54398 2.50708C6.74457 2.50708 6.93707 2.58618 7.0797 2.72722L9.23847 4.88599ZM14.183 4.88599H9.80197L11.9607 2.72722C12.1034 2.58618 12.2959 2.50708 12.4965 2.50708C12.6971 2.50708 12.8895 2.58618 13.0322 2.72722L14.1592 3.85423C14.4449 4.13995 14.4528 4.59234 14.183 4.88599Z" stroke="#706F6C" stroke-width="1.05822" stroke-miterlimit="10" stroke-linecap="round" stroke-linejoin="round"/>
<path d="M7.0957 8.85425V12.9337C7.0957 13.5686 7.79413 13.9416 8.32588 13.6004L9.07193 13.1083C9.20152 13.0229 9.35328 12.9775 9.50844 12.9775C9.66361 12.9775 9.81537 13.0229 9.94496 13.1083L10.6513 13.5845C10.7705 13.6639 10.909 13.7096 11.0521 13.7164C11.1952 13.7233 11.3375 13.6913 11.4638 13.6236C11.59 13.556 11.6956 13.4554 11.7692 13.3325C11.8427 13.2096 11.8816 13.069 11.8815 12.9257V8.85425H7.0957Z" stroke="#706F6C" stroke-width="1.05822" stroke-miterlimit="10" stroke-linecap="round" stroke-linejoin="round"/>
</svg>
