<svg width="18" height="18" viewBox="0 0 18 18" fill="none" xmlns="http://www.w3.org/2000/svg">
<path d="M1.79414 9.10369C1.61839 9.10369 1.47592 8.96121 1.47592 8.78547V1.79451C1.47592 1.61876 1.61839 1.47628 1.79414 1.47628H6.96261C7.13836 1.47628 7.28083 1.61876 7.28083 1.79451V8.78546C7.28083 8.96121 7.13836 9.10369 6.96261 9.10369H1.79414ZM1.79414 16.3936C1.61839 16.3936 1.47592 16.2512 1.47592 16.0754V12.7294C1.47592 12.5537 1.61839 12.4112 1.79414 12.4112H6.96261C7.13836 12.4112 7.28083 12.5537 7.28083 12.7294V16.0754C7.28083 16.2512 7.13836 16.3936 6.96261 16.3936H1.79414ZM10.9066 16.3936C10.7308 16.3936 10.5884 16.2512 10.5884 16.0754V9.08446C10.5884 8.90871 10.7308 8.76624 10.9066 8.76624H16.0751C16.2508 8.76624 16.3933 8.90871 16.3933 9.08446V16.0754C16.3933 16.2512 16.2508 16.3936 16.0751 16.3936H10.9066ZM10.5884 1.79451C10.5884 1.61876 10.7308 1.47628 10.9066 1.47628H16.0751C16.2508 1.47628 16.3933 1.61876 16.3933 1.79451V5.14049C16.3933 5.31624 16.2508 5.45871 16.0751 5.45871H10.9066C10.7308 5.45871 10.5884 5.31624 10.5884 5.14049V1.79451Z" stroke="#333333" stroke-width="1.48504"/>
</svg>
