<svg width="19" height="19" viewBox="0 0 19 19" fill="none" xmlns="http://www.w3.org/2000/svg">
<path d="M9.1864 2.79944C6.65666 2.79944 4.60078 4.85532 4.60078 7.38505V9.59379C4.60078 10.06 4.40207 10.7708 4.16515 11.1682L3.28624 12.6279C2.7436 13.5298 3.1181 14.531 4.11165 14.8673C7.40565 15.9678 10.9595 15.9678 14.2535 14.8673C15.1783 14.5615 15.5833 13.4686 15.0789 12.6279L14.2 11.1682C13.9707 10.7708 13.772 10.06 13.772 9.59379V7.38505C13.772 4.86297 11.7085 2.79944 9.1864 2.79944Z" stroke="#706F6C" stroke-width="1.05822" stroke-miterlimit="10" stroke-linecap="round"/>
<path d="M10.6003 3.02108C9.67603 2.75786 8.69668 2.75786 7.77246 3.02108C7.9941 2.45553 8.54437 2.05811 9.18636 2.05811C9.82835 2.05811 10.3786 2.45553 10.6003 3.02108Z" stroke="#706F6C" stroke-width="1.05822" stroke-miterlimit="10" stroke-linecap="round" stroke-linejoin="round"/>
<path d="M11.4792 15.1425C11.4792 16.4035 10.4474 17.4353 9.18636 17.4353C8.55966 17.4353 7.97882 17.1754 7.56611 16.7627C7.13671 16.3327 6.89493 15.7502 6.89355 15.1425" stroke="#706F6C" stroke-width="1.05822" stroke-miterlimit="10"/>
</svg>
