<svg width="20" height="20" viewBox="0 0 20 20" fill="none" xmlns="http://www.w3.org/2000/svg">
<path d="M15.8497 8.85444H3.15106V15.2038C3.15106 17.5847 3.94473 18.3784 6.32572 18.3784H12.675C15.056 18.3784 15.8497 17.5847 15.8497 15.2038V8.85444ZM17.064 6.47344V7.26711C17.064 8.14014 16.6434 8.85444 15.4767 8.85444H3.5717C2.3574 8.85444 1.98438 8.14014 1.98438 7.26711V6.47344C1.98438 5.60041 2.3574 4.88611 3.5717 4.88611H15.4767C16.6434 4.88611 17.064 5.60041 17.064 6.47344ZM9.23847 4.88611H4.85744C4.72694 4.74457 4.65649 4.55789 4.66093 4.36542C4.66537 4.17295 4.74436 3.98972 4.88125 3.85435L6.00825 2.72735C6.15089 2.58631 6.34339 2.5072 6.54398 2.5072C6.74457 2.5072 6.93707 2.58631 7.0797 2.72735L9.23847 4.88611ZM14.183 4.88611H9.80197L11.9607 2.72735C12.1034 2.58631 12.2959 2.5072 12.4965 2.5072C12.6971 2.5072 12.8895 2.58631 13.0322 2.72735L14.1592 3.85435C14.4449 4.14007 14.4528 4.59246 14.183 4.88611Z" stroke="#706F6C" stroke-width="1.05822" stroke-miterlimit="10" stroke-linecap="round" stroke-linejoin="round"/>
<path d="M7.0957 8.85449V12.9339C7.0957 13.5689 7.79413 13.9419 8.32588 13.6006L9.07193 13.1085C9.20152 13.0232 9.35328 12.9777 9.50844 12.9777C9.66361 12.9777 9.81537 13.0232 9.94496 13.1085L10.6513 13.5847C10.7705 13.6642 10.909 13.7098 11.0521 13.7167C11.1952 13.7236 11.3375 13.6915 11.4638 13.6239C11.59 13.5563 11.6956 13.4556 11.7692 13.3327C11.8427 13.2098 11.8816 13.0692 11.8815 12.926V8.85449H7.0957Z" stroke="#706F6C" stroke-width="1.05822" stroke-miterlimit="10" stroke-linecap="round" stroke-linejoin="round"/>
</svg>
