<svg width="20" height="20" viewBox="0 0 20 20" fill="none" xmlns="http://www.w3.org/2000/svg">
<path d="M14.3976 18.0289C13.6991 18.2353 12.8737 18.3305 11.9055 18.3305H7.14347C6.1752 18.3305 5.34979 18.2353 4.65137 18.0289C4.82597 15.9654 6.94506 14.3384 9.52447 14.3384C12.1039 14.3384 14.223 15.9654 14.3976 18.0289Z" stroke="#706F6C" stroke-width="1.05822" stroke-linecap="round" stroke-linejoin="round"/>
<path d="M11.9055 2.45728H7.14354C3.17522 2.45728 1.58789 4.0446 1.58789 8.01293V12.7749C1.58789 15.775 2.49267 17.4178 4.65144 18.029C4.82604 15.9654 6.94512 14.3384 9.52453 14.3384C12.1039 14.3384 14.223 15.9654 14.3976 18.029C16.5564 17.4178 17.4612 15.775 17.4612 12.7749V8.01293C17.4612 4.0446 15.8738 2.45728 11.9055 2.45728ZM9.52453 12.1162C7.95308 12.1162 6.68322 10.8384 6.68322 9.26692C6.68322 7.69546 7.95308 6.4256 9.52453 6.4256C11.096 6.4256 12.3659 7.69546 12.3659 9.26692C12.3659 10.8384 11.096 12.1162 9.52453 12.1162Z" stroke="#706F6C" stroke-width="1.05822" stroke-linecap="round" stroke-linejoin="round"/>
<path d="M12.3662 9.26686C12.3662 10.8383 11.0964 12.1161 9.52491 12.1161C7.95346 12.1161 6.68359 10.8383 6.68359 9.26686C6.68359 7.6954 7.95346 6.42554 9.52491 6.42554C11.0964 6.42554 12.3662 7.6954 12.3662 9.26686Z" stroke="#706F6C" stroke-width="1.05822" stroke-linecap="round" stroke-linejoin="round"/>
</svg>
