<svg width="20" height="20" viewBox="0 0 20 20" fill="none" xmlns="http://www.w3.org/2000/svg">
<path d="M15.1026 18.0289C14.4042 18.2353 13.5788 18.3305 12.6105 18.3305H7.84855C6.88028 18.3305 6.05487 18.2353 5.35645 18.0289C5.53105 15.9654 7.65014 14.3384 10.2295 14.3384C12.809 14.3384 14.928 15.9654 15.1026 18.0289Z" stroke="#706F6C" stroke-width="1.05822" stroke-linecap="round" stroke-linejoin="round"/>
<path d="M12.6106 2.45715H7.84862C3.8803 2.45715 2.29297 4.04448 2.29297 8.0128V12.7748C2.29297 15.7748 3.19775 17.4177 5.35651 18.0288C5.53112 15.9653 7.6502 14.3383 10.2296 14.3383C12.809 14.3383 14.9281 15.9653 15.1027 18.0288C17.2615 17.4177 18.1663 15.7748 18.1663 12.7748V8.0128C18.1663 4.04448 16.5789 2.45715 12.6106 2.45715ZM10.2296 12.116C8.65816 12.116 7.38829 10.8382 7.38829 9.26679C7.38829 7.69534 8.65816 6.42548 10.2296 6.42548C11.8011 6.42548 13.0709 7.69534 13.0709 9.26679C13.0709 10.8382 11.8011 12.116 10.2296 12.116Z" stroke="#706F6C" stroke-width="1.05822" stroke-linecap="round" stroke-linejoin="round"/>
<path d="M13.0713 9.26686C13.0713 10.8383 11.8014 12.1161 10.23 12.1161C8.65853 12.1161 7.38867 10.8383 7.38867 9.26686C7.38867 7.6954 8.65853 6.42554 10.23 6.42554C11.8014 6.42554 13.0713 7.6954 13.0713 9.26686Z" stroke="#706F6C" stroke-width="1.05822" stroke-linecap="round" stroke-linejoin="round"/>
</svg>
